<?xml version="1.0" encoding="UTF-8" standalone="no"?>
<svg
   xmlns:dc="http://purl.org/dc/elements/1.1/"
   xmlns:cc="http://creativecommons.org/ns#"
   xmlns:rdf="http://www.w3.org/1999/02/22-rdf-syntax-ns#"
   xmlns:svg="http://www.w3.org/2000/svg"
   xmlns="http://www.w3.org/2000/svg"
   id="svg25082"
   version="1.1"
   viewBox="0 0 512 512"
   height="512"
   width="512">
  <defs
     id="defs25076" />
  <metadata
     id="metadata25079">
    <rdf:RDF>
      <cc:Work
         rdf:about="">
        <dc:format>image/svg+xml</dc:format>
        <dc:type
           rdf:resource="http://purl.org/dc/dcmitype/StillImage" />
        <dc:title></dc:title>
      </cc:Work>
    </rdf:RDF>
  </metadata>
  <g
     transform="translate(0,-161.53331)"
     id="layer1">
    <path
       id="path29632"
       d="m 242.15489,386.76321 c -1.80568,0.0491 -3.28082,1.45761 -3.41324,3.2591 -1.59312,18.15461 -0.65321,52.09335 0.64254,81.76191 1.29575,29.66857 2.97869,54.91463 2.97869,54.91463 0.31133,4.68174 11.74726,4.21377 11.43594,-0.46797 0,0 -6.09397,-25.17789 -7.38573,-54.75493 -1.29175,-29.57703 -2.16443,-63.70573 -0.66111,-80.8371 0.2165,-2.11277 -1.47406,-3.93425 -3.59709,-3.87564 z"
       style="color:#000000;font-style:normal;font-variant:normal;font-weight:normal;font-stretch:normal;font-size:medium;line-height:normal;font-family:sans-serif;font-variant-ligatures:normal;font-variant-position:normal;font-variant-caps:normal;font-variant-numeric:normal;font-variant-alternates:normal;font-feature-settings:normal;text-indent:0;text-align:start;text-decoration:none;text-decoration-line:none;text-decoration-style:solid;text-decoration-color:#000000;letter-spacing:normal;word-spacing:normal;text-transform:none;writing-mode:lr-tb;direction:ltr;text-orientation:mixed;dominant-baseline:auto;baseline-shift:baseline;text-anchor:start;white-space:normal;shape-padding:0;clip-rule:nonzero;display:inline;overflow:visible;visibility:visible;opacity:1;isolation:auto;mix-blend-mode:normal;color-interpolation:sRGB;color-interpolation-filters:linearRGB;solid-color:#000000;solid-opacity:1;vector-effect:none;fill:#217821;fill-opacity:1;fill-rule:nonzero;stroke:none;stroke-width:7.03596592;stroke-linecap:round;stroke-linejoin:round;stroke-miterlimit:4;stroke-dasharray:none;stroke-dashoffset:0;stroke-opacity:1;color-rendering:auto;image-rendering:auto;shape-rendering:auto;text-rendering:auto;enable-background:accumulate" />
    <path
       id="path29570"
       d="m 299.97447,165.53293 c -2.71659,19.01613 -10.86636,23.09101 10.86636,44.82372 21.73271,21.73272 20.37442,57.04838 13.58294,76.06451 -6.79147,19.01612 -82.17682,103.90953 -82.17682,103.90953 0,0 -20.37442,-75.38535 -25.12845,-88.9683 -4.75403,-13.58294 -5.43318,-58.40666 3.39574,-76.0645 8.82891,-17.65783 31.24077,-27.16589 43.46542,-27.84503 12.22465,-0.67915 18.33698,-1.3583 22.41186,-8.82892 4.07488,-7.47062 13.58295,-23.09101 13.58295,-23.09101 z"
       style="fill:#00cd00;fill-opacity:1;stroke:none;stroke-width:0.9508062px;stroke-linecap:butt;stroke-linejoin:miter;stroke-opacity:1" />
    <path
       id="path29570-0"
       d="m 60.063304,254.86132 c 13.861838,12.65097 22.244022,11.20095 20.32433,39.31569 -1.919662,28.11476 21.187256,53.63655 37.963156,64.04703 16.77588,10.41045 123.89616,32.10665 123.89616,32.10665 0,0 -32.68071,-67.27603 -37.79468,-79.9933 -5.11395,-12.71725 -32.7234,-46.43166 -50.10496,-54.71153 -17.38153,-8.27987 -39.36836,-3.02934 -48.53616,3.18704 -9.167806,6.21638 -13.964557,9.07199 -21.56112,5.75569 -7.596571,-3.31632 -24.186726,-9.70727 -24.186726,-9.70727 z"
       style="fill:#00cd00;fill-opacity:1;stroke:none;stroke-width:0.89018947px;stroke-linecap:butt;stroke-linejoin:miter;stroke-opacity:1" />
    <path
       id="path29570-0-5"
       d="m 450.54325,296.89048 c -17.93692,6.17916 -25.63794,2.45453 -43.30352,-6.86772 -23.26064,-17.16343 -56.98196,-9.28378 -74.4659,0.86985 -17.48391,10.15363 -90.52688,99.43808 -90.52688,99.43808 0,0 74.56952,5.88032 88.12587,7.99611 13.55632,2.11581 56.62365,-5.54135 72.57828,-17.43011 15.95463,-11.88875 22.58247,-35.51311 21.87481,-47.56256 -0.70769,-12.04946 1.14087,-16.51874 5.97645,-23.49828 6.71228,-5.36106 19.74089,-12.94537 19.74089,-12.94537 z"
       style="fill:#00cd00;fill-opacity:1;stroke:none;stroke-width:0.92971641px;stroke-linecap:butt;stroke-linejoin:miter;stroke-opacity:1" />
    <path
       id="path29570-0-5-2"
       d="m 362.97523,487.38415 c -9.27457,-9.01258 -9.42548,-15.11944 -9.30416,-29.40111 3.09635,-20.52002 -12.09489,-38.77469 -23.61646,-46.11059 -11.52156,-7.33588 -87.80766,-21.54176 -87.80766,-21.54176 0,0 19.59375,48.54328 22.52699,57.73541 2.93322,9.19215 20.88927,33.35039 32.97885,39.12432 12.08959,5.77393 28.33629,1.61724 35.35497,-3.05107 7.01867,-4.66832 10.27668,-5.08401 15.96894,-4.5185 5.30208,2.30309 13.89853,7.7633 13.89853,7.7633 z"
       style="fill:#00cd00;fill-opacity:1;stroke:none;stroke-width:0.6462881px;stroke-linecap:butt;stroke-linejoin:miter;stroke-opacity:1" />
    <path
       id="path29570-0-5-2-7"
       d="m 109.66554,447.29992 c 10.18516,-5.93323 10.35088,-11.98998 10.21765,-26.31194 -3.40036,-21.54807 13.28237,-34.75895 25.93512,-38.26946 12.65276,-3.51048 96.42864,7.61217 96.42864,7.61217 0,0 -21.51747,42.03776 -24.73868,50.256 -3.2212,8.21826 -22.9402,26.41472 -36.21673,28.17467 -13.27655,1.75994 -31.11836,-7.79099 -38.82613,-14.78964 -7.70777,-6.99866 -11.28564,-8.49607 -17.53678,-9.8205 -5.82264,0.54269 -15.26309,3.1487 -15.26309,3.1487 z"
       style="fill:#00cd00;fill-opacity:1;stroke:none;stroke-width:0.67727172px;stroke-linecap:butt;stroke-linejoin:miter;stroke-opacity:1" />
    <g
       transform="matrix(1.9447808,0,0,1.9447808,-48.168067,-608.43579)"
       id="text29651"
       style="font-style:normal;font-variant:normal;font-weight:bold;font-stretch:normal;font-size:53.33333206px;line-height:1.25;font-family:sans-serif;-inkscape-font-specification:'sans-serif Bold';letter-spacing:0px;word-spacing:0px;fill:#000000;fill-opacity:1;stroke:none"
       aria-label="Київ">
      <path
         id="path29653"
         style="font-style:normal;font-variant:normal;font-weight:bold;font-stretch:normal;font-size:96px;font-family:Pacifico;-inkscape-font-specification:'Pacifico Bold';fill:#000000"
         d="m 148.13532,621.82076 q 1.248,0 1.92,1.152 0.768,1.152 0.768,3.168 0,3.744 -1.824,5.952 -4.608,5.568 -9.312,8.64 -4.704,2.976 -11.136,2.976 -7.104,0 -11.616,-4.128 -4.512,-4.224 -8.448,-13.056 -2.88,-6.336 -4.8,-9.408 -1.824,-3.168 -3.648,-4.416 -1.823996,-1.344 -4.607996,-1.632 l -1.056,7.104 q -2.016,13.728 -7.872,19.776 -5.76,6.048 -15.936,6.048 -6.624,0 -11.808,-3.168 -5.088,-3.264 -7.104,-8.256 -0.672,-1.728 -0.672,-3.744 0,-2.88 1.344,-4.992 1.344,-2.112 3.456,-2.112 1.248,0 2.112,0.672 0.864,0.576 1.632,2.112 2.976,5.568 5.184,7.776 2.304,2.208 5.664,2.208 3.84,0 6.528,-3.456 2.784,-3.552 3.936,-10.848 l 1.344,-9.12 h -1.536 q -2.208,0 -3.456,-1.248 -1.248,-1.248 -1.248,-3.456 0,-2.496 1.248,-3.936 1.344,-1.536 3.264,-1.536 h 3.168 q 0.672,-4.704 0.96,-6.528 l 2.976,-21.6 q -2.496,-0.288 -4.704,-0.288 -8.16,0 -12.384,2.88 -4.224,2.784 -4.224,8.064 0,2.4 0.48,3.936 0.576,1.44 1.44,3.264 0.384,0.768 0.384,1.728 0,2.112 -2.016,3.744 -1.92,1.536 -4.32,1.536 -3.072,0 -4.512,-2.688 -2.88,-5.088 -2.88,-10.944 0,-6.048 3.264,-11.04 3.36,-4.992 10.08,-7.968 6.72,-3.072 16.608,-3.072 4.32,0 7.872,0.48 3.648,0.48 7.967996,1.824 4.704,1.44 4.704,5.376 0,5.28 -4.512,5.28 l -3.743996,25.824 q 11.231996,-1.152 18.239996,-9.6 7.104,-8.544 11.808,-23.136 0.864,-2.688 2.88,-4.128 2.112,-1.44 5.28,-1.44 2.688,0 4.128,1.248 1.536,1.152 1.536,3.36 0,0.672 -0.384,2.208 -4.8,15.84 -13.728,25.152 -8.928,9.312 -19.488,12.384 3.648,0.864 5.952,2.592 2.4,1.728 4.032,4.32 1.632,2.496 3.744,7.008 2.976,6.336 5.568,9.024 2.592,2.592 6.048,2.592 3.072,0 5.856,-2.016 2.784,-2.112 7.008,-7.104 1.152,-1.344 2.592,-1.344 z" />
      <path
         id="path29655"
         style="font-style:normal;font-variant:normal;font-weight:bold;font-stretch:normal;font-size:96px;font-family:Pacifico;-inkscape-font-specification:'Pacifico Bold';fill:#000000"
         d="m 152.88732,643.70876 q -4.32,0 -7.104,-3.936 -2.688,-4.032 -2.688,-9.984 0,-7.2 0.96,-13.152 0.96,-6.048 3.168,-12.768 0.96,-2.88 2.688,-4.128 1.728,-1.248 5.472,-1.248 2.112,0 2.88,0.672 0.864,0.672 0.864,2.016 0,0.768 -1.056,5.184 -0.96,3.552 -1.536,6.432 -1.92,10.08 -1.92,13.44 0,2.016 0.48,2.88 0.48,0.768 1.536,0.768 1.44,0 3.552,-2.88 2.208,-2.88 4.608,-8.736 2.496,-5.856 4.8,-14.4 0.768,-2.88 2.304,-4.128 1.632,-1.248 4.8,-1.248 2.208,0 3.072,0.576 0.864,0.48 0.864,1.92 0,2.4 -2.4,13.152 -2.688,12.288 -2.688,15.168 0,1.824 0.768,2.88 0.768,0.96 2.016,0.96 1.92,0 4.512,-2.304 2.688,-2.4 7.104,-7.68 1.152,-1.344 2.592,-1.344 1.248,0 1.92,1.152 0.768,1.152 0.768,3.168 0,3.84 -1.824,5.952 -4.128,5.088 -8.928,8.352 -4.704,3.264 -10.752,3.264 -4.608,0 -6.816,-3.552 -2.112,-3.552 -2.112,-9.984 -1.632,6.528 -4.896,10.08 -3.264,3.456 -7.008,3.456 z" />
      <path
         id="path29657"
         style="font-style:normal;font-variant:normal;font-weight:bold;font-stretch:normal;font-size:96px;font-family:Pacifico;-inkscape-font-specification:'Pacifico Bold';fill:#000000"
         d="m 199.34082,643.70876 q -6.24,0 -9.12,-4.416 -2.784,-4.416 -2.784,-11.712 0,-4.32 1.056,-11.04 1.152,-6.816 2.88,-12.672 0.864,-3.072 2.304,-4.224 1.44,-1.152 4.608,-1.152 4.896,0 4.896,3.264 0,2.4 -1.824,11.136 -2.304,10.56 -2.304,14.304 0,2.88 0.768,4.416 0.768,1.536 2.592,1.536 1.728,0 4.32,-2.4 2.592,-2.4 6.912,-7.584 1.152,-1.344 2.592,-1.344 1.248,0 1.92,1.152 0.768,1.152 0.768,3.168 0,3.84 -1.824,5.952 -9.504,11.616 -17.76,11.616 z m -9.792,-51.552 q -3.072,0 -4.8,-1.632 -1.728,-1.728 -1.728,-5.28 0,-3.84 2.016,-5.952 2.112,-2.208 5.568,-2.208 3.072,0 4.8,1.728 1.728,1.632 1.728,5.184 0,3.84 -2.112,6.048 -2.016,2.112 -5.472,2.112 z m 19.968,0 q -3.072,0 -4.8,-1.632 -1.728,-1.728 -1.728,-5.28 0,-3.84 2.016,-5.952 2.112,-2.208 5.568,-2.208 3.072,0 4.8,1.728 1.728,1.632 1.728,5.184 0,3.84 -2.112,6.048 -2.016,2.112 -5.472,2.112 z" />
      <path
         id="path29659"
         style="font-style:normal;font-variant:normal;font-weight:bold;font-stretch:normal;font-size:96px;font-family:Pacifico;-inkscape-font-specification:'Pacifico Bold';fill:#000000"
         d="m 262.22982,613.75676 q 1.248,0 1.92,1.248 0.672,1.248 0.672,3.168 0,2.4 -0.672,3.744 -0.672,1.248 -2.112,1.728 -5.76,2.016 -12.672,2.304 -1.92,7.968 -7.296,12.864 -5.28,4.896 -11.712,4.896 -9.696,0 -14.112,-7.392 -4.416,-7.392 -4.416,-21.408 0,-12.384 3.072,-26.88 3.072,-14.592 8.928,-24.768 5.952,-10.272 14.112,-10.272 4.416,0 7.104,3.84 2.688,3.744 2.688,9.792 0,7.872 -2.976,15.648 -2.976,7.776 -9.888,16.32 6.432,0.48 10.464,5.376 4.032,4.8 4.8,11.904 4.512,-0.288 10.752,-1.92 0.576,-0.192 1.344,-0.192 z m -26.496,-51.264 q -1.92,0 -4.224,5.76 -2.208,5.664 -4.128,15.456 -1.92,9.792 -2.88,21.408 6.336,-11.616 10.08,-20.448 3.84,-8.928 3.84,-15.84 0,-3.072 -0.768,-4.704 -0.672,-1.632 -1.92,-1.632 z m -4.992,71.04 q 2.976,0 5.28,-2.496 2.304,-2.496 3.072,-7.2 -2.976,-2.016 -4.608,-5.28 -1.536,-3.264 -1.536,-6.912 0,-1.344 0.384,-3.648 h -0.288 q -3.936,0 -6.624,3.936 -2.592,3.84 -2.592,10.368 0,5.472 2.016,8.352 2.112,2.88 4.896,2.88 z" />
    </g>
  </g>
</svg>
