<?xml version="1.0" encoding="UTF-8" standalone="no"?>
<svg
   xmlns:dc="http://purl.org/dc/elements/1.1/"
   xmlns:cc="http://creativecommons.org/ns#"
   xmlns:rdf="http://www.w3.org/1999/02/22-rdf-syntax-ns#"
   xmlns:svg="http://www.w3.org/2000/svg"
   xmlns="http://www.w3.org/2000/svg"
   xmlns:xlink="http://www.w3.org/1999/xlink"
   id="svg8"
   version="1.1"
   viewBox="0 0 136 136"
   height="512"
   width="512">
  <defs
     id="defs2">
    <linearGradient
       id="linearGradient7330"
       x1="100.91964"
       y1="214.22319"
       x2="13.002376"
       y2="270.16367"
       gradientUnits="userSpaceOnUse"
       gradientTransform="matrix(3.161731,0,0,3.161731,41.845418,-468.87946)"
       spreadMethod="pad">
      <stop
         style="stop-color:#faff00;stop-opacity:1"
         offset="0"
         id="stop7326" />
      <stop
         style="stop-color:#a29900;stop-opacity:1"
         offset="1"
         id="stop7328" />
    </linearGradient>
    <linearGradient
       spreadMethod="pad"
       gradientTransform="matrix(0.88090629,0,0,0.88090629,8.5957798,41.252792)"
       gradientUnits="userSpaceOnUse"
       y2="264.10938"
       x2="34.516438"
       y1="241.69035"
       x1="69.011749"
       id="linearGradient4758">
      <stop
         id="stop5"
         offset="0"
         style="stop-color:#241cff;stop-opacity:1" />
      <stop
         id="stop7"
         offset="1"
         style="stop-color:#0b0080;stop-opacity:1" />
    </linearGradient>
    <linearGradient
       spreadMethod="pad"
       y2="270.80267"
       x2="20.670219"
       y1="239.2701"
       x1="66.274162"
       gradientTransform="matrix(0.88090629,0,0,0.88090629,8.5957798,41.252792)"
       gradientUnits="userSpaceOnUse"
       id="linearGradient7324">
       <stop
         style="stop-color:#faff00;stop-opacity:1"
         offset="0"
         id="stop7326" />
      <stop
         style="stop-color:#a29900;stop-opacity:1"
         offset="1"
         id="stop7328" />
	</linearGradient>
  </defs>
  <metadata
     id="metadata5">
    <rdf:RDF>
      <cc:Work
         rdf:about="">
        <dc:format>image/svg+xml</dc:format>
        <dc:type
           rdf:resource="http://purl.org/dc/dcmitype/StillImage" />
        <dc:title></dc:title>
      </cc:Work>
    </rdf:RDF>
  </metadata>
  <g
     transform="translate(0,-161.53331)"
     id="layer1">
    <path
       id="path7222"
       d="m 16.470004,242.28585 c 2.851206,6.57859 7.398976,12.88815 12.971386,18.98501 9.507119,10.40188 22.147387,20.43128 35.65567,30.30865 a 5.3634778,5.3634778 0 0 0 6.331422,0 c 13.508292,-9.87737 26.148548,-19.90677 35.655678,-30.30865 5.57241,-6.09686 10.11975,-12.40642 12.97084,-18.98501 z"
       style="fill:url(#linearGradient7324);fill-opacity:1;stroke:none;stroke-width:10.72588253;stroke-linecap:round;stroke-linejoin:round;stroke-miterlimit:4;stroke-dasharray:none;stroke-opacity:1;paint-order:markers fill stroke" />
    <path
       id="path4775-1-9"
       d="M 16.470004,242.28585 H 120.055 c 2.01317,-4.64517 3.20571,-9.42044 3.20571,-14.36664 0,-10.93734 -3.30452,-19.61862 -8.80523,-25.46064 -5.50072,-5.84203 -12.99872,-8.64143 -20.424884,-8.64143 -13.079504,0 -21.142556,6.84651 -25.767554,12.75862 -4.624905,-5.91227 -12.688063,-12.75862 -25.768096,-12.75862 -7.426162,0 -14.924173,2.7994 -20.424886,8.64143 -5.500723,5.84202 -8.805764,14.5233 -8.805764,25.46064 0,4.9462 1.19246,9.72147 3.205708,14.36664 z"
       style="fill:url(#linearGradient4758);fill-opacity:1;stroke:none;stroke-width:10.72588253;stroke-linecap:round;stroke-linejoin:round;stroke-miterlimit:4;stroke-dasharray:none;stroke-opacity:1;paint-order:markers fill stroke" />
    <g
       transform="translate(-1.5875)"
       id="g4850">
      <g
         aria-label="5.11"
         style="font-style:normal;font-variant:normal;font-weight:bold;font-stretch:normal;font-size:14.85947609px;line-height:1.25;font-family:sans-serif;-inkscape-font-specification:'sans-serif Bold';letter-spacing:0px;word-spacing:0px;fill:#000000;fill-opacity:1;stroke:none;stroke-width:0.27861518"
         id="text7226">
        <path
           d="m 36.038915,189.99296 v -4.70164 q 2.559777,1.56721 5.450409,1.56721 2.176681,0 3.395623,-1.02739 1.236355,-1.04481 1.236355,-2.82098 0,-3.70906 -5.241448,-3.70906 -1.706518,0 -4.126988,0.31344 v -13.94817 h 13.826278 v 4.49267 h -9.124647 v 4.99766 q 1.097048,-0.10448 2.072201,-0.10448 3.848372,0 6.025053,2.01996 2.176681,2.01996 2.176681,5.43299 0,3.77872 -2.594604,6.18178 -2.594604,2.38564 -7.035033,2.38564 -3.604584,0 -6.05988,-1.07963 z"
           style="font-style:normal;font-variant:normal;font-weight:bold;font-stretch:normal;font-size:35.66274261px;font-family:'Segoe UI';-inkscape-font-specification:'Segoe UI Bold';stroke-width:0.27861518"
           id="path4836" />
        <path
           d="m 58.502263,191.07259 q -1.358249,0 -2.263748,-0.83585 -0.9055,-0.83584 -0.9055,-2.05478 0,-1.25377 0.922913,-2.05479 0.940326,-0.80102 2.333402,-0.80102 1.410489,0 2.298575,0.81843 0.9055,0.80102 0.9055,2.03738 0,1.27118 -0.922913,2.08961 -0.905499,0.80102 -2.368229,0.80102 z"
           style="font-style:normal;font-variant:normal;font-weight:bold;font-stretch:normal;font-size:35.66274261px;font-family:'Segoe UI';-inkscape-font-specification:'Segoe UI Bold';stroke-width:0.27861518"
           id="path4838" />
        <path
           d="M 82.167139,190.63725 H 66.373141 v -4.35336 h 5.171795 v -15.55021 l -5.311102,1.14929 v -4.45784 l 10.796338,-2.17669 v 21.03545 h 5.136967 z"
           style="font-style:normal;font-variant:normal;font-weight:bold;font-stretch:normal;font-size:35.66274261px;font-family:'Segoe UI';-inkscape-font-specification:'Segoe UI Bold';stroke-width:0.27861518"
           id="path4840" />
        <path
           d="m 102.71501,190.63725 h -15.794 v -4.35336 h 5.171794 v -15.55021 l -5.311101,1.14929 v -4.45784 l 10.796338,-2.17669 v 21.03545 h 5.136969 z"
           style="font-style:normal;font-variant:normal;font-weight:bold;font-stretch:normal;font-size:35.66274261px;font-family:'Segoe UI';-inkscape-font-specification:'Segoe UI Bold';stroke-width:0.27861518"
           id="path4842" />
      </g>
    </g>
  </g>
</svg>
