<?xml version="1.0" encoding="UTF-8" standalone="no"?>
<!-- Created with Inkscape (http://www.inkscape.org/) -->

<svg
   xmlns:dc="http://purl.org/dc/elements/1.1/"
   xmlns:cc="http://creativecommons.org/ns#"
   xmlns:rdf="http://www.w3.org/1999/02/22-rdf-syntax-ns#"
   xmlns:svg="http://www.w3.org/2000/svg"
   xmlns="http://www.w3.org/2000/svg"
   xmlns:sodipodi="http://sodipodi.sourceforge.net/DTD/sodipodi-0.dtd"
   xmlns:inkscape="http://www.inkscape.org/namespaces/inkscape"
   width="256"
   height="256"
   viewBox="0 0 256 256"
   version="1.1"
   id="svg29668"
   inkscape:version="0.92.5 (2060ec1f9f, 2020-04-08)"
   sodipodi:docname="odesa.svg">
  <defs
     id="defs29662">
    <linearGradient
       spreadMethod="pad"
       gradientTransform="matrix(3.161731,0,0,3.161731,41.845418,-468.87946)"
       gradientUnits="userSpaceOnUse"
       y2="270.16367"
       x2="13.002376"
       y1="214.22319"
       x1="100.91964"
       id="linearGradient7330">
      <stop
         id="stop7326"
         offset="0"
         style="stop-color:#faff00;stop-opacity:1" />
      <stop
         id="stop7328"
         offset="1"
         style="stop-color:#a29900;stop-opacity:1" />
    </linearGradient>
    <linearGradient
       id="linearGradient4758"
       x1="69.011749"
       y1="241.69035"
       x2="34.516438"
       y2="264.10938"
       gradientUnits="userSpaceOnUse"
       gradientTransform="matrix(0.628008,0,0,0.628008,13.606198,241.03008)"
       spreadMethod="pad">
      <stop
         style="stop-color:#241cff;stop-opacity:1"
         offset="0"
         id="stop5" />
      <stop
         style="stop-color:#0b0080;stop-opacity:1"
         offset="1"
         id="stop7" />
    </linearGradient>
    <linearGradient
       id="linearGradient7324"
       gradientUnits="userSpaceOnUse"
       gradientTransform="matrix(0.628008,0,0,0.628008,13.606198,241.03008)"
       x1="66.274162"
       y1="239.2701"
       x2="20.670219"
       y2="270.80267"
       spreadMethod="pad">
      <stop
         id="stop34184"
         offset="0"
         style="stop-color:#faff00;stop-opacity:1" />
      <stop
         id="stop34186"
         offset="1"
         style="stop-color:#a29900;stop-opacity:1" />
    </linearGradient>
  </defs>
  <sodipodi:namedview
     id="base"
     pagecolor="#ffffff"
     bordercolor="#666666"
     borderopacity="1.0"
     inkscape:pageopacity="0.0"
     inkscape:pageshadow="2"
     inkscape:zoom="0.7"
     inkscape:cx="101.28571"
     inkscape:cy="109.18824"
     inkscape:document-units="px"
     inkscape:current-layer="layer1"
     showgrid="false"
     inkscape:pagecheckerboard="true"
     units="px"
     inkscape:window-width="1366"
     inkscape:window-height="706"
     inkscape:window-x="-8"
     inkscape:window-y="-8"
     inkscape:window-maximized="1" />
  <metadata
     id="metadata29665">
    <rdf:RDF>
      <cc:Work
         rdf:about="">
        <dc:format>image/svg+xml</dc:format>
        <dc:type
           rdf:resource="http://purl.org/dc/dcmitype/StillImage" />
        <dc:title></dc:title>
      </cc:Work>
    </rdf:RDF>
  </metadata>
  <g
     inkscape:label="Layer 1"
     inkscape:groupmode="layer"
     id="layer1"
     transform="translate(0,-229.26665)">
    <g
       aria-label="Odesa"
       style="font-style:normal;font-variant:normal;font-weight:bold;font-stretch:normal;font-size:53.33333206px;line-height:1.25;font-family:sans-serif;-inkscape-font-specification:'sans-serif Bold';letter-spacing:0px;word-spacing:0px;fill:#000000;fill-opacity:1;stroke:none"
       id="text34151">
      <path
         d="m 56.290285,430.35007 q 9.472,0 16.448,6.848 6.976,6.848 6.976,17.024 0,10.112 -6.656,17.28 -6.656,7.104 -16.384,7.104 -9.728,0 -16.576,-7.04 -6.784,-7.04 -6.784,-16.768 0,-5.312 1.92,-9.92 1.92,-4.672 5.12,-7.808 3.2,-3.136 7.36,-4.928 4.16,-1.792 8.576,-1.792 z m -11.648,24.128 q 0,5.696 3.648,9.28 3.712,3.52 8.256,3.52 4.544,0 8.192,-3.456 3.648,-3.456 3.648,-9.28 0,-5.824 -3.712,-9.344 -3.648,-3.52 -8.192,-3.52 -4.544,0 -8.192,3.584 -3.648,3.52 -3.648,9.216 z"
         style="font-style:normal;font-variant:normal;font-weight:bold;font-stretch:normal;font-size:64px;font-family:'Fredoka One';-inkscape-font-specification:'Fredoka One Bold'"
         id="path34264" />
      <path
         d="m 106.49128,430.09407 q 0.512,-0.96 1.728,-1.344 1.216,-0.384 3.2,-0.384 2.048,0 3.264,0.384 1.216,0.384 1.664,1.344 0.512,0.96 0.576,1.728 0.128,0.704 0.128,2.176 v 38.208 q 0,1.472 -0.128,2.24 -0.064,0.704 -0.576,1.6 -0.96,1.728 -5.44,1.728 -4.416,0 -4.928,-3.136 -2.688,3.072 -7.487995,3.072 -5.76,0 -10.496,-4.992 -4.736,-5.056 -4.736,-11.712 0,-6.72 4.736,-11.776 4.8,-5.056 10.496,-5.056 4.735995,0 7.359995,3.2 v -13.44 q 0,-1.472 0.064,-2.176 0.128,-0.768 0.576,-1.664 z m -10.367995,34.752 q 1.664,1.728 4.031995,1.728 2.368,0 3.904,-1.728 1.6,-1.728 1.6,-3.776 0,-2.112 -1.536,-3.904 -1.472,-1.792 -4.032,-1.792 -2.559995,0 -4.095995,1.792 -1.536,1.728 -1.536,3.84 0,2.112 1.664,3.84 z"
         style="font-style:normal;font-variant:normal;font-weight:bold;font-stretch:normal;font-size:64px;font-family:'Fredoka One';-inkscape-font-specification:'Fredoka One Bold'"
         id="path34266" />
      <path
         d="m 154.66128,456.97407 q 0,3.904 -1.984,5.824 -1.92,1.856 -4.288,1.856 h -15.168 q 0,1.792 2.112,3.008 2.112,1.216 4.224,1.216 3.712,0 5.824,-0.768 l 0.704,-0.256 q 1.536,-0.704 2.56,-0.704 2.048,0 3.52,2.88 0.832,1.728 0.832,2.944 0,5.696 -13.632,5.696 -4.736,0 -8.448,-1.6 -3.648,-1.664 -5.696,-4.352 -4.032,-5.184 -4.032,-11.584 0,-8.064 5.184,-12.864 5.248,-4.864 13.056,-4.864 8.896,0 13.056,6.272 2.176,3.328 2.176,7.296 z m -13.504,1.856 q 2.432,0 2.432,-2.048 0,-1.472 -1.152,-2.368 -1.088,-0.896 -3.2,-0.896 -2.048,0 -4.096,1.728 -2.048,1.664 -2.048,3.584 z"
         style="font-style:normal;font-variant:normal;font-weight:bold;font-stretch:normal;font-size:64px;font-family:'Fredoka One';-inkscape-font-specification:'Fredoka One Bold'"
         id="path34268" />
      <path
         d="m 159.03028,474.83007 q -1.216,-0.768 -1.216,-2.432 0,-1.664 2.432,-5.056 0.704,-1.088 2.24,-1.088 1.6,0 4.288,1.6 2.688,1.536 4.864,1.536 3.904,0 3.904,-1.536 0,-1.216 -4.288,-1.792 -4.032,-0.576 -8,-3.008 -1.856,-1.152 -3.072,-3.584 -1.216,-2.496 -1.216,-5.888 0,-10.112 13.888,-10.112 4.544,0 9.344,2.176 2.24,1.024 2.24,2.56 0,1.536 -1.408,3.776 -1.408,2.24 -2.88,2.24 -0.768,0 -2.88,-0.96 -2.048,-0.96 -4.48,-0.96 -3.776,0 -3.776,1.408 0,1.92 4.352,2.496 4.224,0.448 8.192,2.432 1.856,0.896 3.072,3.136 1.28,2.176 1.28,5.504 0,3.328 -1.28,5.696 -1.216,2.304 -3.456,3.456 -4.096,1.984 -10.304,1.984 -6.144,0 -11.84,-3.584 z"
         style="font-style:normal;font-variant:normal;font-weight:bold;font-stretch:normal;font-size:64px;font-family:'Fredoka One';-inkscape-font-specification:'Fredoka One Bold'"
         id="path34270" />
      <path
         d="m 211.91228,447.69407 q 0.384,-3.584 5.056,-3.584 2.496,0 3.712,0.384 1.216,0.384 1.664,1.344 0.512,0.96 0.576,1.728 0.128,0.704 0.128,2.176 v 22.4 q 0,1.472 -0.128,2.24 -0.064,0.704 -0.512,1.664 -0.896,1.664 -4.416,1.664 -3.456,0 -4.672,-0.832 -1.152,-0.896 -1.344,-2.56 -2.368,3.392 -7.936,3.392 -5.504,0 -10.24,-5.056 -4.736,-5.056 -4.736,-11.712 0,-6.72 4.736,-11.712 4.8,-5.056 10.496,-5.056 2.176,0 3.968,0.768 1.792,0.768 2.496,1.472 0.704,0.64 1.152,1.28 z m -11.648,13.312 q 0,2.112 1.664,3.84 1.664,1.664 4.032,1.664 2.368,0 3.904,-1.728 1.6,-1.728 1.6,-3.776 0,-2.112 -1.536,-3.904 -1.472,-1.792 -4.032,-1.792 -2.496,0 -4.096,1.792 -1.536,1.792 -1.536,3.904 z"
         style="font-style:normal;font-variant:normal;font-weight:bold;font-stretch:normal;font-size:64px;font-family:'Fredoka One';-inkscape-font-specification:'Fredoka One Bold'"
         id="path34272" />
    </g>
    <g
       id="g34235"
       transform="matrix(0.19638915,0,0,0.19638915,79.377334,233.31027)"
       style="fill:#0066ff">
      <g
         id="g34233"
         transform="matrix(0.1,0,0,-0.1,0,512)"
         style="fill:#0066ff">
        <path
           id="path34231"
           d="m 4781.3,4993 c -216.8,-51.8 -448.8,-230.2 -556.3,-427.7 -138.1,-257 -138.1,-592.7 1.9,-849.8 63.3,-117 259,-301.1 379.8,-360.6 l 90.2,-44.1 -11.5,-86.3 c -5.8,-48 -11.5,-214.8 -11.5,-370.2 v -285.8 h -542.8 -542.8 l -67.1,69.1 c -109.3,113.2 -197.6,151.5 -362.5,151.5 -163,0 -255.1,-38.4 -356.8,-147.7 -103.6,-109.3 -132.3,-182.2 -132.3,-341.4 0,-159.2 28.8,-232.1 132.3,-341.4 101.7,-109.3 193.7,-147.7 356.8,-147.7 165,0 253.2,38.4 362.5,151.5 l 67.1,69 h 531.3 531.3 l -7.7,-176.5 c -5.8,-97.8 -34.5,-1083.8 -65.2,-2192.5 -32.6,-1106.8 -67.1,-2090.8 -76.7,-2186.7 -30.7,-264.7 -90.2,-445 -174.6,-529.4 -212.9,-212.9 -759.6,-228.3 -1160.5,-36.4 -410.5,197.6 -782.6,571.6 -1030,1035.8 -140,264.7 -143.9,249.4 71,249.4 203.3,0 241.7,9.6 241.7,55.6 0,49.9 -861.3,1239.1 -901.5,1244.9 -19.2,3.8 -44.1,-9.6 -53.7,-28.8 -26.9,-51.8 -368.3,-1377.2 -368.3,-1430.9 0,-26.9 13.4,-53.7 30.7,-59.5 17.3,-5.8 115.1,21.1 220.6,63.3 l 189.9,74.8 21.1,-80.5 c 113.2,-420.1 287.7,-826.7 491.1,-1133.7 168.8,-253.2 523.7,-610 773,-774.9 387.5,-257 868.9,-450.8 1459.7,-583.1 324.2,-72.9 454.6,-126.6 596.6,-247.4 l 92.1,-74.8 92.1,74.8 c 142,120.8 272.4,174.6 596.6,247.4 851.7,191.8 1409.8,469.9 1874,934.1 406.7,408.6 636.8,822.9 832.5,1500 l 38.4,138.1 189.9,-74.8 c 201.4,-78.7 251.3,-80.6 251.3,-5.7 0,53.7 -341.4,1383 -368.3,1432.8 -9.6,19.2 -34.5,32.6 -53.7,28.8 -42.2,-5.8 -901.5,-1195 -901.5,-1244.9 0,-46 38.4,-55.6 241.7,-55.6 209.1,0 203.3,7.7 107.4,-182.2 -251.3,-502.6 -669.4,-924.6 -1108.7,-1124 -322.3,-147.7 -790.3,-151.5 -1030,-11.5 -103.6,61.4 -151.5,122.8 -193.8,251.3 -72.9,216.7 -88.2,454.6 -145.8,2524.3 -30.7,1124 -61.4,2117.6 -67.1,2211.6 l -9.6,166.9 h 533.2 533.2 l 67.1,-69 c 109.3,-113.2 197.6,-151.5 362.5,-151.5 163,0 255.1,38.4 356.8,147.7 103.6,109.3 132.4,182.2 132.4,341.4 0,159.2 -28.8,232.1 -132.4,341.4 -101.7,109.3 -193.7,147.7 -356.8,147.7 -165,0 -253.2,-38.4 -362.5,-151.5 l -67.1,-69.1 h -542.8 -542.8 v 285.8 c 0,155.4 -5.8,322.3 -11.5,370.2 l -11.5,86.3 90.2,44.1 c 120.8,59.5 303.1,230.2 372.1,352.9 149.6,260.9 153.4,592.7 9.6,857.4 -65.2,117 -234,285.8 -351,351 -192.2,103.6 -420.5,130.4 -643,76.7 z m 439.3,-406.6 c 90.1,-46 182.2,-140 232.1,-234 25,-48 36.5,-107.4 36.5,-211 0,-159.2 -28.8,-232.1 -132.4,-341.4 -101.7,-109.3 -193.7,-147.7 -356.8,-147.7 -163,0 -255.1,38.4 -356.8,147.7 -103.6,109.3 -132.4,182.2 -132.4,341.4 0,159.2 28.8,232.1 132.4,341.4 59.5,65.2 134.3,111.3 222.5,140 78.7,26.9 272.4,5.7 354.9,-36.4 z"
           inkscape:connector-curvature="0"
           style="fill:#0066ff" />
      </g>
    </g>
    <path
       inkscape:connector-curvature="0"
       id="path7222"
       d="m 19.219818,384.34882 c 2.03266,4.68994 5.27481,9.1881 9.24745,13.53462 6.77773,7.41561 15.78912,14.56569 25.41933,21.60738 a 3.8236837,3.8236837 0 0 0 4.51374,0 c 9.63021,-7.04169 18.64159,-14.19177 25.41933,-21.60738 3.97264,-4.34652 7.21448,-8.84468 9.247062,-13.53462 z"
       style="fill:url(#linearGradient7324);fill-opacity:1;stroke:none;stroke-width:7.64660311;stroke-linecap:round;stroke-linejoin:round;stroke-miterlimit:4;stroke-dasharray:none;stroke-opacity:1;paint-order:markers fill stroke" />
    <path
       inkscape:connector-curvature="0"
       id="path4775-1-9"
       d="M 19.219818,384.34882 H 93.06673 c 1.43522,-3.3116 2.28538,-6.71594 2.28538,-10.24215 0,-7.79735 -2.35582,-13.98633 -6.277342,-18.15118 -3.92153,-4.16484 -9.26693,-6.16057 -14.56112,-6.16057 -9.32454,0 -15.07277,4.88096 -18.36999,9.09577 -3.29715,-4.21493 -9.04545,-9.09577 -18.37036,-9.09577 -5.2942,0 -10.63961,1.99573 -14.56114,6.16057 -3.92152,4.16485 -6.27772,10.35383 -6.27772,18.15118 0,3.52621 0.85012,6.93055 2.28538,10.24215 z"
       style="fill:url(#linearGradient4758);fill-opacity:1;stroke:none;stroke-width:7.64660311;stroke-linecap:round;stroke-linejoin:round;stroke-miterlimit:4;stroke-dasharray:none;stroke-opacity:1;paint-order:markers fill stroke" />
    <g
       aria-label="We"
       style="font-style:normal;font-variant:normal;font-weight:bold;font-stretch:normal;font-size:53.33333206px;line-height:1.25;font-family:sans-serif;-inkscape-font-specification:'sans-serif Bold';letter-spacing:0px;word-spacing:0px;fill:#000000;fill-opacity:1;stroke:none"
       id="text34257"
       transform="translate(0,-2)">
      <path
         d="m 67.511625,296.49866 q 3.930667,1.408 3.930667,3.75467 0,0.76267 -0.704,2.87467 l -11.264,32.56 q -0.117334,0.41066 -0.410667,0.99733 -0.293333,0.58667 -1.584,1.584 -1.232,0.93867 -2.992,0.93867 -1.701334,0 -2.992,-0.93867 -1.232,-0.99733 -1.642667,-1.936 l -6.864,-20.24 q -6.512,19.24267 -6.629334,19.59467 -0.117333,0.352 -0.528,0.99733 -0.410666,0.64533 -0.938666,1.17333 -1.349334,1.34934 -3.226667,1.34934 -1.877333,0 -3.109333,-0.88 -1.173334,-0.88 -1.584,-1.76 l -0.410667,-0.88 -11.322667,-32.56 q -0.645333,-1.936 -0.645333,-2.87467 0,-2.34667 3.930666,-3.696 1.701334,-0.58667 3.050667,-0.58667 1.408,0 2.112,0.93867 0.762667,0.93867 1.349334,2.87467 l 6.453333,19.59466 6.394667,-19.30133 q 0.821333,-2.464 2.992,-3.40267 0.938667,-0.41067 2.405333,-0.41067 1.525334,0 2.816,0.99734 1.290667,0.93867 1.642667,1.87733 l 6.746667,20.35734 6.453333,-19.712 q 0.469334,-1.34934 0.762667,-1.99467 0.293333,-0.64533 1.056,-1.232 0.821333,-0.64534 1.994667,-0.64534 1.173333,0 2.757333,0.58667 z"
         style="font-style:normal;font-variant:normal;font-weight:bold;font-stretch:normal;font-size:58.66666794px;font-family:'Fredoka One';-inkscape-font-specification:'Fredoka One Bold';fill:#000000"
         id="path34259"
         inkscape:connector-curvature="0" />
      <path
         d="m 100.29071,320.14133 q 0,3.57867 -1.818666,5.33867 -1.76,1.70133 -3.930667,1.70133 h -13.904 q 0,1.64267 1.936,2.75733 1.936,1.11467 3.872,1.11467 3.402667,0 5.338667,-0.704 l 0.645333,-0.23467 q 1.408,-0.64533 2.346667,-0.64533 1.877333,0 3.226666,2.64 0.762667,1.584 0.762667,2.69867 0,5.22133 -12.496,5.22133 -4.341334,0 -7.744,-1.46667 -3.344,-1.52533 -5.221334,-3.98933 -3.696,-4.752 -3.696,-10.61867 0,-7.392 4.752,-11.792 4.810667,-4.45866 11.968001,-4.45866 8.154666,0 11.968,5.74933 1.994666,3.05067 1.994666,6.688 z m -12.378666,1.70133 q 2.229333,0 2.229333,-1.87733 0,-1.34933 -1.056,-2.17067 -0.997333,-0.82133 -2.933333,-0.82133 -1.877334,0 -3.754667,1.584 -1.877334,1.52533 -1.877334,3.28533 z"
         style="font-style:normal;font-variant:normal;font-weight:bold;font-stretch:normal;font-size:58.66666794px;font-family:'Fredoka One';-inkscape-font-specification:'Fredoka One Bold';fill:#000000"
         id="path34261"
         inkscape:connector-curvature="0" />
    </g>
  </g>
</svg>
