<?xml version="1.0" encoding="UTF-8" standalone="no"?>
<!-- Created with Inkscape (http://www.inkscape.org/) -->

<svg
   xmlns:dc="http://purl.org/dc/elements/1.1/"
   xmlns:cc="http://creativecommons.org/ns#"
   xmlns:rdf="http://www.w3.org/1999/02/22-rdf-syntax-ns#"
   xmlns:svg="http://www.w3.org/2000/svg"
   xmlns="http://www.w3.org/2000/svg"
   xmlns:sodipodi="http://sodipodi.sourceforge.net/DTD/sodipodi-0.dtd"
   xmlns:inkscape="http://www.inkscape.org/namespaces/inkscape"
   width="512"
   height="512"
   viewBox="0 0 512 512"
   version="1.1"
   id="svg39798"
   inkscape:version="0.92.5 (2060ec1f9f, 2020-04-08)"
   sodipodi:docname="mariupol.svg">
  <defs
     id="defs39792">
    <linearGradient
       id="linearGradient7330"
       x1="100.91964"
       y1="214.22319"
       x2="13.002376"
       y2="270.16367"
       gradientUnits="userSpaceOnUse"
       gradientTransform="matrix(3.161731,0,0,3.161731,41.845418,-468.87946)"
       spreadMethod="pad">
      <stop
         style="stop-color:#faff00;stop-opacity:1"
         offset="0"
         id="stop7326" />
      <stop
         style="stop-color:#a29900;stop-opacity:1"
         offset="1"
         id="stop7328" />
    </linearGradient>
    <linearGradient
       spreadMethod="pad"
       gradientTransform="matrix(1.4652697,0,0,1.4652697,181.91744,-13.362376)"
       gradientUnits="userSpaceOnUse"
       y2="264.10938"
       x2="34.516438"
       y1="241.69035"
       x1="69.011749"
       id="linearGradient4758">
      <stop
         id="stop5"
         offset="0"
         style="stop-color:#241cff;stop-opacity:1" />
      <stop
         id="stop7"
         offset="1"
         style="stop-color:#0b0080;stop-opacity:1" />
    </linearGradient>
    <linearGradient
       spreadMethod="pad"
       y2="270.80267"
       x2="20.670219"
       y1="239.2701"
       x1="66.274162"
       gradientTransform="matrix(1.4652697,0,0,1.4652697,181.91744,-13.362376)"
       gradientUnits="userSpaceOnUse"
       id="linearGradient7324">
      <stop
         style="stop-color:#faff00;stop-opacity:1"
         offset="0"
         id="stop34184" />
      <stop
         style="stop-color:#a29900;stop-opacity:1"
         offset="1"
         id="stop34186" />
    </linearGradient>
  </defs>
  <sodipodi:namedview
     id="base"
     pagecolor="#ffffff"
     bordercolor="#666666"
     borderopacity="1.0"
     inkscape:pageopacity="0.0"
     inkscape:pageshadow="2"
     inkscape:zoom="0.7"
     inkscape:cx="318.27057"
     inkscape:cy="242.9463"
     inkscape:document-units="px"
     inkscape:current-layer="layer1"
     showgrid="false"
     units="px"
     inkscape:pagecheckerboard="true"
     showguides="true"
     inkscape:guide-bbox="true"
     inkscape:window-width="1366"
     inkscape:window-height="706"
     inkscape:window-x="-8"
     inkscape:window-y="-8"
     inkscape:window-maximized="1" />
  <metadata
     id="metadata39795">
    <rdf:RDF>
      <cc:Work
         rdf:about="">
        <dc:format>image/svg+xml</dc:format>
        <dc:type
           rdf:resource="http://purl.org/dc/dcmitype/StillImage" />
        <dc:title></dc:title>
      </cc:Work>
    </rdf:RDF>
  </metadata>
  <g
     inkscape:label="Layer 1"
     inkscape:groupmode="layer"
     id="layer1"
     transform="translate(0,-161.53331)">
    <path
       style="opacity:1;fill:#0000ff;fill-opacity:1;fill-rule:nonzero;stroke:none;stroke-width:6.10771654;stroke-linecap:round;stroke-linejoin:round;stroke-miterlimit:4;stroke-dasharray:none;stroke-dashoffset:0;stroke-opacity:1;paint-order:markers fill stroke"
       d="m 384.06055,477.81958 a 63.571426,41.304177 0 0 1 -63.48828,40.24275 63.571426,41.304177 0 0 1 -62.74805,-35.01845 63.571426,41.304177 0 0 1 -62.9668,35.94682 63.571426,41.304177 0 0 1 -62.8457,-35.38067 63.571426,41.304177 0 0 1 -62.726564,34.9173 A 63.571426,41.304177 0 0 1 7.1425781,485.70008 V 673.53331 H 511.42773 V 477.81958 h -0.22461 a 63.571426,41.304177 0 0 1 -63.48828,40.24275 63.571426,41.304177 0 0 1 -63.51367,-40.24275 z"
       id="rect44295"
       inkscape:connector-curvature="0" />
    <g
       aria-label="МАРІУПОЛЬ"
       style="font-style:normal;font-variant:normal;font-weight:bold;font-stretch:normal;font-size:87.95415497px;line-height:1.25;font-family:sans-serif;-inkscape-font-specification:'sans-serif Bold';letter-spacing:0px;word-spacing:0px;fill:#ffffff;fill-opacity:1;stroke:none;stroke-width:1.64914048"
       id="text44277">
      <path
         d="m 100.65248,625.88423 q 0,0.42946 -0.25768,0.77303 -0.21473,0.34357 -0.858927,0.55831 -0.601249,0.21473 -1.631962,0.34357 -1.030712,0.12884 -2.619728,0.12884 -1.546069,0 -2.576782,-0.12884 -1.030712,-0.12884 -1.631962,-0.34357 -0.601249,-0.21474 -0.858927,-0.55831 -0.257678,-0.34357 -0.257678,-0.77303 v -45.22252 h -0.08589 l -16.104887,45.17957 q -0.171785,0.55831 -0.558302,0.94482 -0.386518,0.34357 -1.073659,0.55831 -0.644196,0.21473 -1.674909,0.25767 -1.030712,0.0859 -2.490889,0.0859 -1.460176,0 -2.490889,-0.12884 -1.030713,-0.0859 -1.717855,-0.30063 -0.644195,-0.25768 -1.030712,-0.60125 -0.386518,-0.34357 -0.515357,-0.81598 L 46.668898,580.66171 h -0.08589 v 45.22252 q 0,0.42946 -0.257679,0.77303 -0.214731,0.34357 -0.858927,0.55831 -0.644195,0.21473 -1.674908,0.34357 -0.987767,0.12884 -2.576782,0.12884 -1.546069,0 -2.576782,-0.12884 -1.030713,-0.12884 -1.674908,-0.34357 -0.601249,-0.21474 -0.858927,-0.55831 -0.214732,-0.34357 -0.214732,-0.77303 v -49.51716 q 0,-2.19026 1.159552,-3.34982 1.159551,-1.15955 3.092138,-1.15955 h 7.386775 q 1.975532,0 3.392762,0.34357 1.41723,0.30063 2.447943,1.07366 1.030713,0.73009 1.717855,1.97553 0.687142,1.2025 1.202498,3.00625 l 12.024982,33.11165 h 0.171786 L 80.940097,578.3426 q 0.558303,-1.80374 1.202499,-3.04919 0.687141,-1.24544 1.546069,-2.01848 0.901873,-0.77303 2.104372,-1.07366 1.202498,-0.34357 2.791513,-0.34357 h 7.601507 q 1.159552,0 1.975533,0.30063 0.858927,0.30062 1.374283,0.90187 0.558307,0.5583 0.815977,1.41723 0.30063,0.81598 0.30063,1.88964 z"
         style="font-style:normal;font-variant:normal;font-weight:bold;font-stretch:normal;font-family:Calibri;-inkscape-font-specification:'Calibri Bold';fill:#ffffff;stroke-width:1.64914048"
         id="path44475" />
      <path
         d="m 158.37239,623.22155 q 0.51536,1.54607 0.6442,2.44795 0.12884,0.90187 -0.34357,1.37428 -0.47241,0.42946 -1.67491,0.51536 -1.2025,0.12884 -3.30687,0.12884 -2.19027,0 -3.43571,-0.0859 -1.2025,-0.0429 -1.84669,-0.21473 -0.6442,-0.21473 -0.90188,-0.5583 -0.25768,-0.34357 -0.42946,-0.90187 l -3.73634,-11.16606 h -20.87193 l -3.5216,10.86543 q -0.17179,0.60125 -0.47241,1.03071 -0.25768,0.38652 -0.90187,0.6442 -0.60125,0.21473 -1.76081,0.30062 -1.1166,0.0859 -2.96329,0.0859 -1.97554,0 -3.09214,-0.12884 -1.11661,-0.12884 -1.54607,-0.60125 -0.42947,-0.51536 -0.30063,-1.41723 0.12884,-0.90188 0.6442,-2.405 l 17.1356,-49.30243 q 0.25768,-0.73008 0.60125,-1.15955 0.34357,-0.47241 1.07366,-0.68714 0.77303,-0.25768 2.10437,-0.30062 1.33134,-0.0859 3.5216,-0.0859 2.53384,0 4.03696,0.0859 1.50312,0.0429 2.3191,0.30062 0.85893,0.21473 1.2025,0.68714 0.38652,0.47241 0.6442,1.28839 z m -25.51014,-40.7561 h -0.0429 l -7.85919,23.6205 h 15.76132 z"
         style="font-style:normal;font-variant:normal;font-weight:bold;font-stretch:normal;font-family:Calibri;-inkscape-font-specification:'Calibri Bold';fill:#ffffff;stroke-width:1.64914048"
         id="path44477" />
      <path
         d="m 204.15322,588.73562 q 0,4.68116 -1.46018,8.28865 -1.46017,3.6075 -4.25169,6.09839 -2.79151,2.44794 -6.87142,3.73633 -4.03695,1.28839 -9.53409,1.28839 h -4.63821 v 17.73685 q 0,0.42946 -0.30062,0.77303 -0.25768,0.34357 -0.90187,0.55831 -0.6442,0.21473 -1.71786,0.34357 -1.07366,0.12884 -2.74857,0.12884 -1.63196,0 -2.74856,-0.12884 -1.07366,-0.12884 -1.71786,-0.34357 -0.64419,-0.21474 -0.90187,-0.55831 -0.25768,-0.34357 -0.25768,-0.77303 v -49.98957 q 0,-2.01848 1.03071,-3.00625 1.07366,-1.03071 2.79152,-1.03071 h 13.09864 q 1.97553,0 3.73633,0.17179 1.80375,0.12884 4.29464,0.64419 2.49089,0.47241 5.02472,1.80375 2.57678,1.33134 4.38053,3.39276 1.80375,2.01848 2.74857,4.76705 0.94482,2.70562 0.94482,6.09838 z m -11.81025,0.81598 q 0,-2.92035 -1.03071,-4.80999 -1.03072,-1.88964 -2.53384,-2.79151 -1.50312,-0.90188 -3.17803,-1.11661 -1.63196,-0.25768 -3.39276,-0.25768 h -4.81 v 18.85346 h 5.06767 q 2.70563,0 4.50937,-0.73009 1.8467,-0.73009 3.00625,-2.01848 1.15955,-1.33134 1.7608,-3.13508 0.60125,-1.8467 0.60125,-3.99402 z"
         style="font-style:normal;font-variant:normal;font-weight:bold;font-stretch:normal;font-family:Calibri;-inkscape-font-specification:'Calibri Bold';fill:#ffffff;stroke-width:1.64914048"
         id="path44479" />
      <path
         d="m 224.33801,625.88423 q 0,0.42946 -0.30062,0.77303 -0.25768,0.34357 -0.90188,0.55831 -0.64419,0.21473 -1.71785,0.34357 -1.07366,0.12884 -2.74857,0.12884 -1.63196,0 -2.74857,-0.12884 -1.07366,-0.12884 -1.71785,-0.34357 -0.6442,-0.21474 -0.94482,-0.55831 -0.25768,-0.34357 -0.25768,-0.77303 v -52.48046 q 0,-0.42946 0.25768,-0.77303 0.30062,-0.34357 0.94482,-0.55831 0.68714,-0.21473 1.7608,-0.34357 1.07366,-0.12884 2.70562,-0.12884 1.67491,0 2.74857,0.12884 1.07366,0.12884 1.71785,0.34357 0.6442,0.21474 0.90188,0.55831 0.30062,0.34357 0.30062,0.77303 z"
         style="font-style:normal;font-variant:normal;font-weight:bold;font-stretch:normal;font-family:Calibri;-inkscape-font-specification:'Calibri Bold';fill:#ffffff;stroke-width:1.64914048"
         id="path44481" />
      <path
         d="m 262.94679,612.09845 q -1.88964,4.80999 -3.73633,7.94507 -1.80375,3.13509 -3.90812,4.98178 -2.06143,1.80375 -4.55232,2.49089 -2.44794,0.73009 -5.62597,0.73009 -1.15955,0 -2.27616,-0.17179 -1.1166,-0.12884 -2.10437,-0.38651 -0.98777,-0.25768 -1.71785,-0.60125 -0.73009,-0.34357 -1.07366,-0.6442 -0.34357,-0.30062 -0.55831,-0.64419 -0.17178,-0.38652 -0.30062,-0.98777 -0.12884,-0.60125 -0.21473,-1.50312 -0.043,-0.94482 -0.043,-2.31911 0,-2.49089 0.34357,-3.5216 0.38652,-1.07366 1.15955,-1.07366 0.38652,0 0.85893,0.30063 0.47241,0.30062 1.11661,0.64419 0.68714,0.34357 1.54607,0.6442 0.90187,0.25768 2.10437,0.25768 0.90187,0 1.67491,-0.17179 0.77303,-0.21473 1.46017,-0.77303 0.68714,-0.55831 1.37429,-1.54607 0.68714,-1.03072 1.46017,-2.66268 l -18.29515,-37.2345 q -0.60125,-1.33133 -0.73009,-2.14731 -0.0859,-0.85893 0.42947,-1.33134 0.51535,-0.47241 1.71785,-0.60125 1.24545,-0.17179 3.30687,-0.17179 2.01848,0 3.22098,0.0859 1.2025,0.0859 1.93259,0.38651 0.73008,0.25768 1.1166,0.81598 0.38652,0.51536 0.77304,1.37429 l 7.81623,16.83497 q 1.28839,2.70562 2.44795,5.41125 1.15955,2.66267 2.23321,5.41124 h 0.12884 q 0.85892,-2.87741 1.80374,-5.58303 0.98777,-2.74857 2.14732,-5.75481 l 6.39901,-17.09266 q 0.21473,-0.60125 0.5583,-0.94482 0.34357,-0.38651 1.03072,-0.60125 0.68714,-0.21473 1.88964,-0.25767 1.20249,-0.0859 3.13508,-0.0859 1.97553,0 3.13509,0.12884 1.15955,0.12884 1.6749,0.51536 0.51536,0.34357 0.47241,0.98777 -0.0429,0.64419 -0.42946,1.6749 z"
         style="font-style:normal;font-variant:normal;font-weight:bold;font-stretch:normal;font-family:Calibri;-inkscape-font-specification:'Calibri Bold';fill:#ffffff;stroke-width:1.64914048"
         id="path44483" />
      <path
         d="m 327.92464,625.97012 q 0,0.42947 -0.25768,0.77304 -0.25767,0.30062 -0.90187,0.51535 -0.64419,0.21473 -1.7608,0.30063 -1.07366,0.12884 -2.70562,0.12884 -1.63196,0 -2.74857,-0.12884 -1.07366,-0.0859 -1.71785,-0.30063 -0.6442,-0.21473 -0.94482,-0.51535 -0.25768,-0.34357 -0.25768,-0.77304 V 581.26296 H 295.9296 v 44.70716 q 0,0.42947 -0.30062,0.77304 -0.25768,0.30062 -0.90188,0.51535 -0.64419,0.21473 -1.71785,0.30063 -1.07366,0.12884 -2.74857,0.12884 -1.63196,0 -2.74857,-0.12884 -1.07366,-0.0859 -1.71785,-0.30063 -0.6442,-0.21473 -0.90187,-0.51535 -0.25768,-0.34357 -0.25768,-0.77304 v -50.54787 q 0,-1.80375 0.90187,-2.66267 0.90187,-0.90188 2.405,-0.90188 h 36.71914 q 1.54607,0 2.405,0.90188 0.85892,0.85892 0.85892,2.66267 z"
         style="font-style:normal;font-variant:normal;font-weight:bold;font-stretch:normal;font-family:Calibri;-inkscape-font-specification:'Calibri Bold';fill:#ffffff;stroke-width:1.64914048"
         id="path44485" />
      <path
         d="m 390.11098,598.9998 q 0,6.91437 -1.71785,12.36856 -1.71785,5.45419 -5.11062,9.27641 -3.39276,3.77928 -8.41748,5.79776 -4.98178,1.97553 -11.55258,1.97553 -6.4849,0 -11.33784,-1.6749 -4.80999,-1.71786 -8.03097,-5.19651 -3.22097,-3.47866 -4.85294,-8.84696 -1.58901,-5.36829 -1.58901,-12.71212 0,-6.74258 1.71785,-12.11087 1.71786,-5.41125 5.11062,-9.19053 3.39276,-3.77928 8.37454,-5.79776 5.02473,-2.01847 11.63847,-2.01847 6.31311,0 11.1231,1.6749 4.85294,1.67491 8.07392,5.15357 3.26392,3.47865 4.89589,8.804 1.6749,5.28241 1.6749,12.49739 z m -11.85319,0.60125 q 0,-4.38053 -0.68714,-7.94507 -0.68715,-3.6075 -2.36205,-6.14133 -1.63197,-2.57679 -4.38053,-3.95107 -2.74857,-1.41723 -6.87142,-1.41723 -4.1658,0 -6.95731,1.58902 -2.79152,1.54606 -4.50937,4.16579 -1.71786,2.61973 -2.44794,6.14133 -0.68715,3.47866 -0.68715,7.38678 0,4.55231 0.68715,8.20275 0.68714,3.6075 2.3191,6.18428 1.63196,2.57678 4.38053,3.95107 2.74857,1.33133 6.91436,1.33133 4.1658,0 6.95732,-1.54607 2.79151,-1.54607 4.50936,-4.20874 1.71786,-2.66267 2.405,-6.18428 0.73009,-3.56454 0.73009,-7.55856 z"
         style="font-style:normal;font-variant:normal;font-weight:bold;font-stretch:normal;font-family:Calibri;-inkscape-font-specification:'Calibri Bold';fill:#ffffff;stroke-width:1.64914048"
         id="path44487" />
      <path
         d="m 440.48707,625.97012 q 0,0.42947 -0.25768,0.77304 -0.25767,0.30062 -0.90187,0.51535 -0.6442,0.21473 -1.7608,0.30063 -1.07366,0.12884 -2.70562,0.12884 -1.67491,0 -2.74857,-0.12884 -1.07366,-0.0859 -1.71785,-0.30063 -0.6442,-0.21473 -0.90188,-0.51535 -0.25768,-0.34357 -0.25768,-0.77304 v -44.836 h -11.93908 q -1.2025,9.83471 -2.44795,17.17854 -1.24544,7.34383 -2.66267,12.58329 -1.41723,5.23945 -3.13509,8.58927 -1.6749,3.34982 -3.86517,5.32535 -2.14732,1.93259 -4.89589,2.66267 -2.70562,0.73009 -6.18427,0.73009 -0.6442,0 -1.11661,-0.17178 -0.47241,-0.17179 -0.77303,-0.6442 -0.25768,-0.47241 -0.38652,-1.33134 -0.12884,-0.85892 -0.12884,-2.19026 0,-1.84669 0.0859,-2.9633 0.0859,-1.15955 0.30063,-1.7608 0.21473,-0.6442 0.5583,-0.85893 0.34357,-0.21473 0.81598,-0.21473 1.33134,0 2.53384,-0.51536 1.24544,-0.5583 2.36205,-2.14731 1.15955,-1.58902 2.19026,-4.46643 1.07366,-2.8774 2.06143,-7.55856 1.03071,-4.7241 2.01848,-11.46668 1.03071,-6.78552 2.06142,-16.10488 0.25768,-2.19027 1.03072,-3.04919 0.77303,-0.90188 2.27615,-0.90188 h 27.27094 q 1.54607,0 2.36206,0.90188 0.85892,0.85892 0.85892,2.66267 z"
         style="font-style:normal;font-variant:normal;font-weight:bold;font-stretch:normal;font-family:Calibri;-inkscape-font-specification:'Calibri Bold';fill:#ffffff;stroke-width:1.64914048"
         id="path44489" />
      <path
         d="m 493.52583,609.00631 q 0,3.95106 -1.2025,7.25793 -1.15955,3.30687 -3.82223,5.79776 -2.61973,2.44795 -6.87142,3.90812 -4.25169,1.46018 -11.63846,1.46018 h -13.87168 q -0.73009,0 -1.37428,-0.17179 -0.60125,-0.21473 -1.07366,-0.64419 -0.47241,-0.47241 -0.77304,-1.11661 -0.25767,-0.68714 -0.25767,-1.63196 v -50.54787 q 0,-0.42947 0.25767,-0.73009 0.30063,-0.34357 0.94482,-0.5583 0.68715,-0.21473 1.76081,-0.30063 1.1166,-0.12884 2.70562,-0.12884 1.67491,0 2.74856,0.12884 1.07366,0.0859 1.71786,0.30063 0.64419,0.21473 0.90187,0.5583 0.25768,0.30062 0.25768,0.73009 v 18.93935 h 7.77329 q 6.31312,0 10.04945,1.1166 3.73634,1.07366 6.31312,3.22098 2.61973,2.14732 4.03696,5.2824 1.41723,3.13509 1.41723,7.1291 z m -11.59552,0.94482 q 0,-2.10437 -0.60125,-3.73634 -0.60125,-1.63196 -1.8467,-2.79151 -1.24544,-1.15955 -3.22097,-1.7608 -1.93259,-0.6442 -5.79776,-0.6442 h -6.52785 v 17.65096 h 6.74258 q 4.03696,0 6.01249,-0.77304 2.01848,-0.81598 3.13509,-2.06142 1.1166,-1.28839 1.58901,-2.83446 0.51536,-1.54607 0.51536,-3.04919 z"
         style="font-style:normal;font-variant:normal;font-weight:bold;font-stretch:normal;font-family:Calibri;-inkscape-font-specification:'Calibri Bold';fill:#ffffff;stroke-width:1.64914048"
         id="path44491" />
    </g>
    <path
       style="color:#000000;font-style:normal;font-variant:normal;font-weight:normal;font-stretch:normal;font-size:medium;line-height:normal;font-family:sans-serif;font-variant-ligatures:normal;font-variant-position:normal;font-variant-caps:normal;font-variant-numeric:normal;font-variant-alternates:normal;font-feature-settings:normal;text-indent:0;text-align:start;text-decoration:none;text-decoration-line:none;text-decoration-style:solid;text-decoration-color:#000000;letter-spacing:normal;word-spacing:normal;text-transform:none;writing-mode:lr-tb;direction:ltr;text-orientation:mixed;dominant-baseline:auto;baseline-shift:baseline;text-anchor:start;white-space:normal;shape-padding:0;clip-rule:nonzero;display:inline;overflow:visible;visibility:visible;opacity:1;isolation:auto;mix-blend-mode:normal;color-interpolation:sRGB;color-interpolation-filters:linearRGB;solid-color:#000000;solid-opacity:1;vector-effect:none;fill:#000080;fill-opacity:1;fill-rule:nonzero;stroke:none;stroke-width:6.10771656;stroke-linecap:round;stroke-linejoin:round;stroke-miterlimit:4;stroke-dasharray:none;stroke-dashoffset:0;stroke-opacity:1;paint-order:markers fill stroke;color-rendering:auto;image-rendering:auto;shape-rendering:auto;text-rendering:auto;enable-background:accumulate"
       d="m 383.49023,473.19336 a 3.0541637,3.0541637 0 0 0 -3.05273,2.93359 c -0.39333,9.94176 -6.86894,19.15403 -17.74023,26.04493 -10.87043,6.89034 -25.99724,11.25432 -42.69336,11.26562 -15.18923,-0.0129 -29.21029,-3.64616 -39.85352,-9.58594 -10.64323,-5.93977 -17.79614,-14.09748 -19.92578,-23.08398 a 3.0541637,3.0541637 0 0 0 -5.96484,0.10156 c -1.84457,9.16194 -8.89578,17.51378 -19.59375,23.62109 -10.69706,6.10679 -24.9204,9.86368 -40.37696,9.875 -15.29563,-0.0107 -29.3996,-3.69014 -40.0664,-9.69531 -10.66681,-6.00516 -17.781,-14.24075 -19.80078,-23.29687 a 3.0541637,3.0541637 0 0 0 -5.94922,-0.0508 c -2.16022,8.96773 -9.32512,17.10573 -19.96289,23.02734 -10.63639,5.92084 -24.63452,9.53935 -39.79297,9.55273 -29.12641,-0.0225 -53.70774,-13.57678 -59.23828,-30.71289 a 3.0541637,3.0541637 0 0 0 -5.96094,0.93946 v 187.83203 a 3.0541637,3.0541637 0 0 0 3.05469,3.05468 h 504.28515 a 3.0541637,3.0541637 0 0 0 3.05274,-3.05468 V 476.24805 a 3.0541637,3.0541637 0 0 0 -3.05274,-3.05469 h -0.22461 a 3.0541637,3.0541637 0 0 0 -3.05273,2.93359 c -0.39334,9.94176 -6.86894,19.15403 -17.74024,26.04493 -10.87086,6.89061 -25.9984,11.25467 -42.69531,11.26562 -16.7025,-0.006 -31.83663,-4.36848 -42.71289,-11.25977 -10.87626,-6.89128 -17.35655,-16.10616 -17.75,-26.05078 a 3.0541637,3.0541637 0 0 0 -3.05078,-2.93359 z m 0.0703,15.09766 c 3.43051,7.4455 9.60149,13.97797 17.60156,19.04687 12.04447,7.63147 28.22408,12.20036 45.98047,12.20703 a 3.0541637,3.0541637 0 0 0 0.004,0 c 17.75132,-0.0113 33.92362,-4.58166 45.9629,-12.21289 6.06708,-3.84568 11.11096,-8.52529 14.69335,-13.80859 V 668.9082 H 9.625 V 495.86328 c 11.24268,14.82662 33.82853,24.12696 59.08789,24.14649 a 3.0541637,3.0541637 0 0 0 0.004,0 c 16.12314,-0.0132 31.06849,-3.814 42.76367,-10.32422 8.79786,-4.89741 15.81557,-11.37963 19.89453,-19.02149 3.99577,7.75589 11.00826,14.34955 19.85156,19.32813 11.73403,6.60598 26.79247,10.46906 43.0586,10.48047 a 3.0541637,3.0541637 0 0 0 0.004,0 c 16.43833,-0.0114 31.62725,-3.9544 43.4043,-10.67774 8.82517,-5.03816 15.79981,-11.69663 19.70703,-19.50976 4.07573,7.58314 11.03983,14.02633 19.77344,18.90039 11.70272,6.53106 26.67089,10.34568 42.82422,10.35937 a 3.0541637,3.0541637 0 0 0 0.006,0 c 17.75131,-0.0113 33.92361,-4.58166 45.96289,-12.21289 7.99545,-5.06801 14.1646,-11.59858 17.59375,-19.04101 z"
       id="rect44295-9"
       inkscape:connector-curvature="0" />
    <g
       id="g34235"
       transform="matrix(0.19638915,0,0,0.19638915,-11.04188,229.09575)"
       style="fill:#fab500;fill-opacity:1">
      <g
         id="g34233"
         transform="matrix(0.1,0,0,-0.1,0,512)"
         style="fill:#fab500;fill-opacity:1">
        <path
           id="path34231"
           d="m 4781.3,4993 c -216.8,-51.8 -448.8,-230.2 -556.3,-427.7 -138.1,-257 -138.1,-592.7 1.9,-849.8 63.3,-117 259,-301.1 379.8,-360.6 l 90.2,-44.1 -11.5,-86.3 c -5.8,-48 -11.5,-214.8 -11.5,-370.2 v -285.8 h -542.8 -542.8 l -67.1,69.1 c -109.3,113.2 -197.6,151.5 -362.5,151.5 -163,0 -255.1,-38.4 -356.8,-147.7 -103.6,-109.3 -132.3,-182.2 -132.3,-341.4 0,-159.2 28.8,-232.1 132.3,-341.4 101.7,-109.3 193.7,-147.7 356.8,-147.7 165,0 253.2,38.4 362.5,151.5 l 67.1,69 h 531.3 531.3 l -7.7,-176.5 c -5.8,-97.8 -34.5,-1083.8 -65.2,-2192.5 -32.6,-1106.8 -67.1,-2090.8 -76.7,-2186.7 -30.7,-264.7 -90.2,-445 -174.6,-529.4 -212.9,-212.9 -759.6,-228.3 -1160.5,-36.4 -410.5,197.6 -782.6,571.6 -1030,1035.8 -140,264.7 -143.9,249.4 71,249.4 203.3,0 241.7,9.6 241.7,55.6 0,49.9 -861.3,1239.1 -901.5,1244.9 -19.2,3.8 -44.1,-9.6 -53.7,-28.8 -26.9,-51.8 -368.3,-1377.2 -368.3,-1430.9 0,-26.9 13.4,-53.7 30.7,-59.5 17.3,-5.8 115.1,21.1 220.6,63.3 l 189.9,74.8 21.1,-80.5 c 113.2,-420.1 287.7,-826.7 491.1,-1133.7 168.8,-253.2 523.7,-610 773,-774.9 387.5,-257 868.9,-450.8 1459.7,-583.1 324.2,-72.9 454.6,-126.6 596.6,-247.4 l 92.1,-74.8 92.1,74.8 c 142,120.8 272.4,174.6 596.6,247.4 851.7,191.8 1409.8,469.9 1874,934.1 406.7,408.6 636.8,822.9 832.5,1500 l 38.4,138.1 189.9,-74.8 c 201.4,-78.7 251.3,-80.6 251.3,-5.7 0,53.7 -341.4,1383 -368.3,1432.8 -9.6,19.2 -34.5,32.6 -53.7,28.8 -42.2,-5.8 -901.5,-1195 -901.5,-1244.9 0,-46 38.4,-55.6 241.7,-55.6 209.1,0 203.3,7.7 107.4,-182.2 -251.3,-502.6 -669.4,-924.6 -1108.7,-1124 -322.3,-147.7 -790.3,-151.5 -1030,-11.5 -103.6,61.4 -151.5,122.8 -193.8,251.3 -72.9,216.7 -88.2,454.6 -145.8,2524.3 -30.7,1124 -61.4,2117.6 -67.1,2211.6 l -9.6,166.9 h 533.2 533.2 l 67.1,-69 c 109.3,-113.2 197.6,-151.5 362.5,-151.5 163,0 255.1,38.4 356.8,147.7 103.6,109.3 132.4,182.2 132.4,341.4 0,159.2 -28.8,232.1 -132.4,341.4 -101.7,109.3 -193.7,147.7 -356.8,147.7 -165,0 -253.2,-38.4 -362.5,-151.5 l -67.1,-69.1 h -542.8 -542.8 v 285.8 c 0,155.4 -5.8,322.3 -11.5,370.2 l -11.5,86.3 90.2,44.1 c 120.8,59.5 303.1,230.2 372.1,352.9 149.6,260.9 153.4,592.7 9.6,857.4 -65.2,117 -234,285.8 -351,351 -192.2,103.6 -420.5,130.4 -643,76.7 z m 439.3,-406.6 c 90.1,-46 182.2,-140 232.1,-234 25,-48 36.5,-107.4 36.5,-211 0,-159.2 -28.8,-232.1 -132.4,-341.4 -101.7,-109.3 -193.7,-147.7 -356.8,-147.7 -163,0 -255.1,38.4 -356.8,147.7 -103.6,109.3 -132.4,182.2 -132.4,341.4 0,159.2 28.8,232.1 132.4,341.4 59.5,65.2 134.3,111.3 222.5,140 78.7,26.9 272.4,5.7 354.9,-36.4 z"
           inkscape:connector-curvature="0"
           style="fill:#fab500;fill-opacity:1" />
      </g>
    </g>
    <path
       inkscape:connector-curvature="0"
       id="path7222"
       d="m 195.01514,321.02921 c 4.74261,10.94258 12.30719,21.43771 21.57617,31.57901 15.81382,17.30212 36.83921,33.9847 59.30844,50.41438 a 8.9214269,8.9214269 0 0 0 10.53146,0 c 22.46923,-16.42968 43.49462,-33.11226 59.30846,-50.41438 9.26897,-10.1413 16.83284,-20.63643 21.57526,-31.57901 z"
       style="fill:url(#linearGradient7324);fill-opacity:1;stroke:none;stroke-width:17.84107018;stroke-linecap:round;stroke-linejoin:round;stroke-miterlimit:4;stroke-dasharray:none;stroke-opacity:1;paint-order:markers fill stroke" />
    <path
       inkscape:connector-curvature="0"
       id="path4775-1-9"
       d="m 195.01514,321.02921 h 172.29979 c 3.34866,-7.72662 5.33226,-15.66964 5.33226,-23.897 0,-18.19279 -5.4966,-32.63293 -14.64631,-42.35037 -9.14972,-9.71741 -21.62162,-14.37386 -33.97404,-14.37386 -21.75605,0 -35.16783,11.38827 -42.86091,21.22228 -7.69293,-9.83429 -21.10487,-21.22228 -42.86177,-21.22228 -12.35244,0 -24.82437,4.65645 -33.97408,14.37386 -9.14971,9.71744 -14.64719,24.15758 -14.64719,42.35037 0,8.22736 1.9835,16.17038 5.33225,23.897 z"
       style="fill:url(#linearGradient4758);fill-opacity:1;stroke:none;stroke-width:17.84107018;stroke-linecap:round;stroke-linejoin:round;stroke-miterlimit:4;stroke-dasharray:none;stroke-opacity:1;paint-order:markers fill stroke" />
  </g>
</svg>
