<?xml version="1.0" encoding="UTF-8" standalone="no"?>
<svg
   xmlns:dc="http://purl.org/dc/elements/1.1/"
   xmlns:cc="http://creativecommons.org/ns#"
   xmlns:rdf="http://www.w3.org/1999/02/22-rdf-syntax-ns#"
   xmlns:svg="http://www.w3.org/2000/svg"
   xmlns="http://www.w3.org/2000/svg"
   xmlns:xlink="http://www.w3.org/1999/xlink"
   xmlns:sodipodi="http://sodipodi.sourceforge.net/DTD/sodipodi-0.dtd"
   xmlns:inkscape="http://www.inkscape.org/namespaces/inkscape"
   width="256"
   height="256"
   viewBox="-82.5 0 256 256"
   version="1.1"
   id="svg9"
   sodipodi:docname="tryzub_ua.svg"
   style="fill:#ffd500"
   inkscape:version="0.92.5 (2060ec1f9f, 2020-04-08)">
  <metadata
     id="metadata15">
    <rdf:RDF>
      <cc:Work
         rdf:about="">
        <dc:format>image/svg+xml</dc:format>
        <dc:type
           rdf:resource="http://purl.org/dc/dcmitype/StillImage" />
        <dc:title />
      </cc:Work>
    </rdf:RDF>
  </metadata>
  <defs
     id="defs13" />
  <sodipodi:namedview
     pagecolor="#ffffff"
     bordercolor="#666666"
     borderopacity="1"
     objecttolerance="10"
     gridtolerance="10"
     guidetolerance="10"
     inkscape:pageopacity="0"
     inkscape:pageshadow="2"
     inkscape:window-width="1366"
     inkscape:window-height="706"
     id="namedview11"
     showgrid="false"
     inkscape:pagecheckerboard="true"
     inkscape:zoom="2.0477223"
     inkscape:cx="87.602125"
     inkscape:cy="131.14984"
     inkscape:window-x="-8"
     inkscape:window-y="-8"
     inkscape:window-maximized="1"
     inkscape:current-layer="svg9" />
  <path
     d="M -23.203761,15.61873 H 116.87326 v 148.69714 c 0,10.65234 -6.27726,20.3042 -16.0145,24.62375 l -32.443387,13.7452 -21.580627,9.143 -54.0240157,-23.96571 C -16.926509,183.54255 -23.203764,173.89069 -23.203761,163.23835 Z"
     id="path2"
     inkscape:connector-curvature="0"
     style="fill:#005bc6;fill-opacity:1;stroke:#ffd500;stroke-width:2.15503097"
     sodipodi:nodetypes="ccscccssc" />
  <g
     id="g4888"
     transform="translate(0,-18)"
     style="fill:#ffd500;fill-opacity:0.98431373">
    <path
       style="stroke-width:0.86201239;fill:#ffd500;fill-opacity:0.98431373"
       inkscape:connector-curvature="0"
       id="path4"
       d="M 51.994374,100.48832 A 89.717716,89.717716 0 0 0 64.10875,148.7757 47.410682,47.410682 0 0 1 52.714003,209.66582 17.240248,17.240248 0 0 0 46.834746,215.71885 17.240248,17.240248 0 0 0 40.955491,209.66582 47.410682,47.410682 0 0 1 29.560744,148.7757 89.717716,89.717716 0 0 0 41.675119,100.48832 L 40.296208,61.473196 a 25.950009,25.950009 0 0 1 6.538538,-18.156826 25.950009,25.950009 0 0 1 6.538538,18.156826 z m -0.849566,98.95983 a 38.790558,38.790558 0 0 0 5.513151,-46.33744 98.33784,98.33784 0 0 1 -9.823213,-23.39123 98.33784,98.33784 0 0 1 -9.823213,23.39123 38.790558,38.790558 0 0 0 5.513151,46.33744 v -26.82992 h 8.620124 z" />
    <path
       style="stroke-width:0.86201239;fill:#ffd500;fill-opacity:0.98431373"
       inkscape:connector-curvature="0"
       d="m 70.781294,97.343393 a 54.004921,54.004921 0 0 1 27.7742,-41.096837 V 181.23835 H 46.834746 l -4.310062,-8.62012 a 19.395279,19.395279 0 0 1 15.137779,-18.92222 l 12.614816,-2.83834 a 8.620124,8.620124 0 1 0 -3.81651,-16.81247 z m 5.170622,29.613477 a 17.240248,17.240248 0 0 1 -3.782415,32.31068 l -12.614815,2.83833 a 10.775155,10.775155 0 0 0 -8.409878,10.51235 H 89.93537 V 74.146641 A 45.384798,45.384798 0 0 0 79.34651,98.315574 Z m 7.087351,11.18086 h 8.620127 v 8.62013 h -8.620127 z"
       id="a" />
    <use
       height="100%"
       width="100%"
       y="0"
       x="0"
       id="use7"
       transform="matrix(-1,0,0,1,93.669491,2.5860372e-7)"
       xlink:href="#a"
       style="fill:#ffd500;fill-opacity:0.98431373" />
  </g>
  <path
     style="fill:#ffed00;fill-opacity:1;stroke:none;stroke-width:6.06185007;stroke-linecap:round;stroke-linejoin:round;stroke-miterlimit:4;stroke-dasharray:none;stroke-opacity:1;paint-order:markers fill stroke"
     d="m -76.018849,222.68117 c 1.611382,3.71798 4.181605,7.28388 7.330924,10.7296 5.373052,5.87873 12.516835,11.54695 20.151186,17.12926 a 3.0312284,3.0312284 0 0 0 3.578267,0 c 7.634362,-5.58231 14.778155,-11.25053 20.151197,-17.12926 3.149305,-3.44572 5.719288,-7.01162 7.330607,-10.7296 z"
     id="path7222-1-2"
     inkscape:connector-curvature="0" />
  <path
     style="fill:#005bc6;fill-opacity:1;stroke:none;stroke-width:6.06185007;stroke-linecap:round;stroke-linejoin:round;stroke-miterlimit:4;stroke-dasharray:none;stroke-opacity:1;paint-order:markers fill stroke"
     d="m -76.018849,222.68117 h 58.542181 c 1.13777,-2.62525 1.811752,-5.32407 1.811752,-8.11946 0,-6.18135 -1.867585,-11.08767 -4.976382,-14.38936 -3.108783,-3.30169 -7.346356,-4.88379 -11.543335,-4.88379 -7.392033,0 -11.948939,3.86937 -14.562816,7.21067 -2.613826,-3.34139 -7.170805,-7.21067 -14.563119,-7.21067 -4.196979,0 -8.434562,1.5821 -11.543349,4.88379 -3.108797,3.30169 -4.976673,8.20801 -4.976673,14.38936 0,2.79539 0.673931,5.49421 1.811741,8.11946 z"
     id="path4775-1-9-5-9"
     inkscape:connector-curvature="0" />
  <path
     style="fill:#fff103;fill-opacity:1;stroke-width:0.47004029"
     d="m 118.43717,226.0311 v 14.77347 c 0,0.79907 0.28203,1.45867 0.89308,1.92871 0.56405,0.56403 1.26887,0.84605 2.02094,0.89307 1.03409,0.047 3.38395,0.70362 7.05026,1.97272 2.25619,0.79908 4.04234,1.36312 5.35844,1.78617 1.26913,0.42303 3.10347,0.8465 5.40667,1.31654 2.3502,0.47004 4.46394,0.70649 6.4381,0.70649 h 0.75261 3.38573 1.59746 c 3.94835,-0.0469 6.86314,-1.22387 8.7903,-3.48006 1.73916,-2.06817 2.48955,-4.7465 2.20753,-8.08379 1.12809,-1.0811 1.97527,-2.49231 2.3983,-4.18445 0.51704,-1.78615 0.51704,-3.57076 0,-5.21589 0.57091,-0.74809 0.94404,-1.57286 1.26414,-2.41298 z"
     id="path4930"
     inkscape:connector-curvature="0" />
  <path
     style="fill:#005bc6;fill-opacity:1;stroke-width:0.47004029"
     d="m 118.43717,226.0311 h 47.56356 c 0.44417,-1.16578 0.71711,-2.38686 0.66247,-3.69808 0,-0.94008 -0.23525,-2.06752 -0.65828,-3.38363 1.64515,-1.88016 2.44443,-4.13677 2.44443,-6.67499 0,-2.3032 -0.84663,-4.32459 -2.53877,-6.01673 -1.69213,-1.69214 -3.71352,-2.53876 -6.01672,-2.53876 h -12.36048 c 0.141,-0.42303 0.23423,-0.79764 0.37525,-1.07966 0.094,-0.28202 0.28158,-0.61138 0.4696,-0.98741 0.18802,-0.37605 0.32945,-0.61073 0.42348,-0.79874 0.51704,-0.98709 0.94018,-1.83459 1.22221,-2.49264 0.28202,-0.65806 0.56493,-1.55113 0.84695,-2.67924 0.28203,-1.12809 0.42138,-2.25551 0.42138,-3.38361 v -1.74002 c -0.047,-0.47004 -0.0938,-1.12788 -0.2348,-2.02096 -0.094,-0.89307 -0.28071,-1.59857 -0.51571,-2.20962 -0.23503,-0.61106 -0.61172,-1.26888 -1.08176,-2.02095 -0.47003,-0.70505 -1.08108,-1.31611 -1.78614,-1.78615 -0.70507,-0.47003 -1.59814,-0.84495 -2.67923,-1.17399 -1.0811,-0.32903 -2.30353,-0.4696 -3.66664,-0.4696 -0.79906,0 -1.4569,0.28081 -2.02095,0.84487 -0.56404,0.56402 -1.0801,1.31654 -1.50312,2.20962 -0.42306,0.89308 -0.75207,1.64591 -0.89309,2.30396 -0.18801,0.65805 -0.37592,1.55025 -0.56394,2.72534 -0.28202,1.22211 -0.47113,2.11519 -0.61215,2.67922 -0.141,0.56406 -0.4227,1.26834 -0.79873,2.16141 -0.37604,0.89308 -0.84563,1.64648 -1.36267,2.16352 -0.98709,0.98709 -2.49243,2.77323 -4.5136,5.35844 -1.45712,1.92716 -2.96035,3.71242 -4.51149,5.40457 -1.55113,1.69214 -2.68065,2.58608 -3.38571,2.6331 -0.75207,0.047 -1.40958,0.32904 -1.92662,0.89308 -0.51703,0.51705 -0.79873,1.17454 -0.79873,1.9266 z"
     id="path4928"
     inkscape:connector-curvature="0" />
  <path
     style="fill:#fff103;fill-opacity:1;stroke-width:0.47004029"
     d="m 97.003381,226.0311 v 14.77347 c 0,0.79907 0.282895,1.45899 0.846953,2.02304 0.564038,0.56406 1.268882,0.84485 2.020949,0.84485 h 12.878307 c 0.79906,0 1.45689,-0.28079 2.02094,-0.84485 0.56405,-0.56405 0.84695,-1.27097 0.84695,-2.02304 V 226.0311 Z m 8.601599,6.22007 c 0.79908,0 1.45691,0.28082 2.02095,0.84487 0.56405,0.56405 0.84695,1.27097 0.84695,2.02303 0,0.79908 -0.2829,1.45691 -0.84695,2.02095 -0.56404,0.56406 -1.26888,0.84486 -2.02095,0.84486 -0.79906,0 -1.45689,-0.2808 -2.02094,-0.84486 -0.56406,-0.51704 -0.84697,-1.22187 -0.84697,-2.02095 0,-0.79906 0.28291,-1.45898 0.84697,-2.02303 0.51704,-0.56405 1.22188,-0.84487 2.02094,-0.84487 z"
     id="path4926"
     inkscape:connector-curvature="0" />
  <path
     style="fill:#005bc6;fill-opacity:1;stroke-width:0.47004029"
     d="m 97.003381,226.0311 h 18.614099 v -13.80492 c 0,-0.79907 -0.2829,-1.45691 -0.84695,-2.02095 -0.56405,-0.56405 -1.26888,-0.84486 -2.02094,-0.84486 H 99.871283 c -0.799076,0 -1.456911,0.28081 -2.020949,0.84486 -0.564058,0.56404 -0.846953,1.26889 -0.846953,2.02095 z"
     id="path4866"
     inkscape:connector-curvature="0" />
</svg>
